<svg width="136" height="23" viewBox="0 0 136 23" fill="none" xmlns="http://www.w3.org/2000/svg">
<path fill-rule="evenodd" clip-rule="evenodd" d="M61.3329 1L80.5532 1L83 3.48265V20.9551H78.1063V19.2593L62.7179 21L60 18.5326V10.4935L62.4344 8.01087L78.1063 7.9299V5.96531L61.3329 5.96531V1ZM78.1063 12.8953L64.8937 12.9635V15.7578L78.1063 14.2633V12.8953Z" fill="black"/>
<path fill-rule="evenodd" clip-rule="evenodd" d="M56 21L43.557 21L41.7755 20.2711L37.0389 15.5927L37.0389 20.9459L32 20.9459L32 1L53.3301 1.08342L55.8396 3.57402L55.833 11.5908L53.0432 14.063L41.3546 12.8167L44.6005 16.0228L56 16.0228L56 21ZM37.0389 7.35037L50.7964 8.81732L50.7987 6.05078L37.0389 5.99697L37.0389 7.35037Z" fill="black"/>
<path fill-rule="evenodd" clip-rule="evenodd" d="M120.981 3.47104L123.481 1L134.552 1V5.94208L125.981 5.94208V9.61382L130.906 16.0579H136V21H128.417L122.236 12.9133H119V20.8576H114V1.15605L119 1.15605V7.97124H120.981V3.47104Z" fill="black"/>
<path fill-rule="evenodd" clip-rule="evenodd" d="M110.028 3.90782L107.538 1L89.7631 1L87.2405 3.50404L87.2405 9.47686L89.3412 11.9456L105.955 14.7429L105.955 15.9919L91.4917 15.9919L91.8641 13.9005L86.896 13.0287L86 18.0601L88.4841 21L108.477 21L111 18.496L111 12.6278L108.899 10.159L92.2857 7.36178L92.2857 6.00808L104.57 6.00808L104.255 7.92023L109.234 8.72778L110.028 3.90782Z" fill="black"/>
<path fill-rule="evenodd" clip-rule="evenodd" d="M3.90646e-08 23L-1.67225e-06 3.42551L3.51827 1.33961e-06L24.5435 0.0824864L24.5154 6.9335L12.6139 6.88681L25 17.8852L20.2877 22.9564L7.00841 11.1649L7.00841 23L3.90646e-08 23Z" fill="#0000FF"/>
</svg>
